<?xml version="1.0" encoding="utf-8"?><svg viewBox="0 0 452 353" width="100%" height="100%" version="1.1" xmlns:xlink="http://www.w3.org/1999/xlink" xmlns="http://www.w3.org/2000/svg"><defs /><rect x="0" y="0" width="452" height="353" fill="#FFFFFF" fill-opacity="1" /><rect x="117" y="162" width="36" height="36" fill="#FFFFFF" fill-opacity="1" transform="matrix(1 0 0 1 73 14.49998)" /><rect x="117" y="162" width="36" height="36" fill="none" stroke="#000000" stroke-opacity="1" stroke-width="3" stroke-linecap="butt" stroke-linejoin="miter" stroke-dasharray="none" transform="matrix(1 0 0 1 73 14.49998)" /><rect x="117" y="18" width="36" height="36" fill="#FFFFFF" fill-opacity="1" transform="matrix(1 0 0 1 73 14.49998)" /><rect x="117" y="18" width="36" height="36" fill="none" stroke="#000000" stroke-opacity="1" stroke-width="3" stroke-linecap="butt" stroke-linejoin="miter" stroke-dasharray="none" transform="matrix(1 0 0 1 73 14.49998)" /><rect x="117" y="54" width="36" height="36" fill="#FFFFFF" fill-opacity="1" transform="matrix(1 0 0 1 73 14.49998)" /><rect x="117" y="54" width="36" height="36" fill="none" stroke="#000000" stroke-opacity="1" stroke-width="3" stroke-linecap="butt" stroke-linejoin="miter" stroke-dasharray="none" transform="matrix(1 0 0 1 73 14.49998)" /><rect x="117" y="90" width="36" height="36" fill="#FFFFFF" fill-opacity="1" transform="matrix(1 0 0 1 73 14.49998)" /><rect x="117" y="90" width="36" height="36" fill="none" stroke="#000000" stroke-opacity="1" stroke-width="3" stroke-linecap="butt" stroke-linejoin="miter" stroke-dasharray="none" transform="matrix(1 0 0 1 73 14.49998)" /><rect x="9" y="126" width="36" height="36" fill="#FFFFFF" fill-opacity="1" transform="matrix(1 0 0 1 73 14.49998)" /><rect x="9" y="126" width="36" height="36" fill="none" stroke="#000000" stroke-opacity="1" stroke-width="3" stroke-linecap="butt" stroke-linejoin="miter" stroke-dasharray="none" transform="matrix(1 0 0 1 73 14.49998)" /><rect x="45" y="126" width="36" height="36" fill="#FFFFFF" fill-opacity="1" transform="matrix(1 0 0 1 73 14.49998)" /><rect x="45" y="126" width="36" height="36" fill="none" stroke="#000000" stroke-opacity="1" stroke-width="3" stroke-linecap="butt" stroke-linejoin="miter" stroke-dasharray="none" transform="matrix(1 0 0 1 73 14.49998)" /><rect x="81" y="126" width="36" height="36" fill="#FFFFFF" fill-opacity="1" transform="matrix(1 0 0 1 73 14.49998)" /><rect x="81" y="126" width="36" height="36" fill="none" stroke="#000000" stroke-opacity="1" stroke-width="3" stroke-linecap="butt" stroke-linejoin="miter" stroke-dasharray="none" transform="matrix(1 0 0 1 73 14.49998)" /><rect x="117" y="126" width="36" height="36" fill="#FFFFFF" fill-opacity="1" transform="matrix(1 0 0 1 73 14.49998)" /><rect x="117" y="126" width="36" height="36" fill="none" stroke="#000000" stroke-opacity="1" stroke-width="3" stroke-linecap="butt" stroke-linejoin="miter" stroke-dasharray="none" transform="matrix(1 0 0 1 73 14.49998)" /><rect x="117" y="198" width="36" height="36" fill="#FFFFFF" fill-opacity="1" transform="matrix(1 0 0 1 73 14.49998)" /><rect x="117" y="198" width="36" height="36" fill="none" stroke="#000000" stroke-opacity="1" stroke-width="3" stroke-linecap="butt" stroke-linejoin="miter" stroke-dasharray="none" transform="matrix(1 0 0 1 73 14.49998)" /><rect x="153" y="126" width="36" height="36" fill="#FFFFFF" fill-opacity="1" transform="matrix(1 0 0 1 73 14.49998)" /><rect x="153" y="126" width="36" height="36" fill="none" stroke="#000000" stroke-opacity="1" stroke-width="3" stroke-linecap="butt" stroke-linejoin="miter" stroke-dasharray="none" transform="matrix(1 0 0 1 73 14.49998)" /><rect x="117" y="234" width="36" height="36" fill="#FFFFFF" fill-opacity="1" transform="matrix(1 0 0 1 73 14.49998)" /><rect x="117" y="234" width="36" height="36" fill="none" stroke="#000000" stroke-opacity="1" stroke-width="3" stroke-linecap="butt" stroke-linejoin="miter" stroke-dasharray="none" transform="matrix(1 0 0 1 73 14.49998)" /><rect x="189" y="126" width="36" height="36" fill="#FFFFFF" fill-opacity="1" transform="matrix(1 0 0 1 73 14.49998)" /><rect x="189" y="126" width="36" height="36" fill="none" stroke="#000000" stroke-opacity="1" stroke-width="3" stroke-linecap="butt" stroke-linejoin="miter" stroke-dasharray="none" transform="matrix(1 0 0 1 73 14.49998)" /><rect x="117" y="270" width="36" height="36" fill="#FFFFFF" fill-opacity="1" transform="matrix(1 0 0 1 73 14.49998)" /><rect x="117" y="270" width="36" height="36" fill="none" stroke="#000000" stroke-opacity="1" stroke-width="3" stroke-linecap="butt" stroke-linejoin="miter" stroke-dasharray="none" transform="matrix(1 0 0 1 73 14.49998)" /><rect x="225" y="126" width="36" height="36" fill="#FFFFFF" fill-opacity="1" transform="matrix(1 0 0 1 73 14.49998)" /><rect x="225" y="126" width="36" height="36" fill="none" stroke="#000000" stroke-opacity="1" stroke-width="3" stroke-linecap="butt" stroke-linejoin="miter" stroke-dasharray="none" transform="matrix(1 0 0 1 73 14.49998)" /><rect x="153" y="234" width="36" height="36" fill="#FFFFFF" fill-opacity="1" transform="matrix(1 0 0 1 73 14.49998)" /><rect x="153" y="234" width="36" height="36" fill="none" stroke="#000000" stroke-opacity="1" stroke-width="3" stroke-linecap="butt" stroke-linejoin="miter" stroke-dasharray="none" transform="matrix(1 0 0 1 73 14.49998)" /><rect x="261" y="126" width="36" height="36" fill="#FFFFFF" fill-opacity="1" transform="matrix(1 0 0 1 73 14.49998)" /><rect x="261" y="126" width="36" height="36" fill="none" stroke="#000000" stroke-opacity="1" stroke-width="3" stroke-linecap="butt" stroke-linejoin="miter" stroke-dasharray="none" transform="matrix(1 0 0 1 73 14.49998)" /><rect x="189" y="234" width="36" height="36" fill="#FFFFFF" fill-opacity="1" transform="matrix(1 0 0 1 73 14.49998)" /><rect x="189" y="234" width="36" height="36" fill="none" stroke="#000000" stroke-opacity="1" stroke-width="3" stroke-linecap="butt" stroke-linejoin="miter" stroke-dasharray="none" transform="matrix(1 0 0 1 73 14.49998)" /><text x="24.00073" y="149.1963" font-size="15" fill="#0045A3" fill-opacity="1" font-family="Bookman Old Style" font-weight="bold" font-style="normal" transform="matrix(1 0 0 1 73 14.49998)">I</text><text x="57.45191" y="149.1963" font-size="15" fill="#0045A3" fill-opacity="1" font-family="Bookman Old Style" font-weight="bold" font-style="normal" transform="matrix(1 0 0 1 73 14.49998)">N</text><text x="93.89868" y="149.1963" font-size="15" fill="#0045A3" fill-opacity="1" font-family="Bookman Old Style" font-weight="bold" font-style="normal" transform="matrix(1 0 0 1 73 14.49998)">F</text><text x="132.0007" y="149.1963" font-size="15" fill="#0045A3" fill-opacity="1" font-family="Bookman Old Style" font-weight="bold" font-style="normal" transform="matrix(1 0 0 1 73 14.49998)">I</text><text x="165.4519" y="149.1963" font-size="15" fill="#0045A3" fill-opacity="1" font-family="Bookman Old Style" font-weight="bold" font-style="normal" transform="matrix(1 0 0 1 73 14.49998)">N</text><text x="204.0007" y="149.1963" font-size="15" fill="#0045A3" fill-opacity="1" font-family="Bookman Old Style" font-weight="bold" font-style="normal" transform="matrix(1 0 0 1 73 14.49998)">I</text><text x="237.7485" y="149.1963" font-size="15" fill="#0045A3" fill-opacity="1" font-family="Bookman Old Style" font-weight="bold" font-style="normal" transform="matrix(1 0 0 1 73 14.49998)">T</text><text x="273.5984" y="149.1963" font-size="15" fill="#0045A3" fill-opacity="1" font-family="Bookman Old Style" font-weight="bold" font-style="normal" transform="matrix(1 0 0 1 73 14.49998)">E</text><text x="130.0488" y="41.19629" font-size="15" fill="#0045A3" fill-opacity="1" font-family="Bookman Old Style" font-weight="bold" font-style="normal" transform="matrix(1 0 0 1 73 14.49998)">S</text><text x="129.4519" y="77.19629" font-size="15" fill="#0045A3" fill-opacity="1" font-family="Bookman Old Style" font-weight="bold" font-style="normal" transform="matrix(1 0 0 1 73 14.49998)">C</text><text x="129.1516" y="113.1963" font-size="15" fill="#0045A3" fill-opacity="1" font-family="Bookman Old Style" font-weight="bold" font-style="normal" transform="matrix(1 0 0 1 73 14.49998)">R</text><text x="129.5984" y="185.1963" font-size="15" fill="#0045A3" fill-opacity="1" font-family="Bookman Old Style" font-weight="bold" font-style="normal" transform="matrix(1 0 0 1 73 14.49998)">B</text><text x="129.5984" y="221.1963" font-size="15" fill="#0045A3" fill-opacity="1" font-family="Bookman Old Style" font-weight="bold" font-style="normal" transform="matrix(1 0 0 1 73 14.49998)">B</text><text x="130.199" y="257.1963" font-size="15" fill="#0045A3" fill-opacity="1" font-family="Bookman Old Style" font-weight="bold" font-style="normal" transform="matrix(1 0 0 1 73 14.49998)">L</text><text x="129.5984" y="293.1963" font-size="15" fill="#0045A3" fill-opacity="1" font-family="Bookman Old Style" font-weight="bold" font-style="normal" transform="matrix(1 0 0 1 73 14.49998)">E</text><text x="166.199" y="257.1963" font-size="15" fill="#0045A3" fill-opacity="1" font-family="Bookman Old Style" font-weight="bold" font-style="normal" transform="matrix(1 0 0 1 73 14.49998)">L</text><text x="201.4519" y="257.1963" font-size="15" fill="#0045A3" fill-opacity="1" font-family="Bookman Old Style" font-weight="bold" font-style="normal" transform="matrix(1 0 0 1 73 14.49998)">C</text></svg>