<?xml version="1.0" encoding="utf-8"?><svg viewBox="0 0 1491 671" width="100%" height="100%" version="1.1" xmlns:xlink="http://www.w3.org/1999/xlink" xmlns="http://www.w3.org/2000/svg"><defs /><linearGradient id="gradient1" x1="100%" y1="49.99999%" x2="0%" y2="49.99999%"><stop offset="0%" stop-color="#005ACE" stop-opacity="1" /><stop offset="100%" stop-color="#FFFFFF" stop-opacity="1" /><stop offset="100%" stop-color="#F1F6FE" stop-opacity="1" /><stop offset="99.76466%" stop-color="#C8F1FD" stop-opacity="1" /></linearGradient><rect x="0" y="0" width="1491" height="671" fill="#FFFFFF" fill-opacity="1" /><path d="M10.09438 373.8257 C4.117617 119.2145 283.1371 -59.61458 528.0369 80.13193 C608.7153 126.1712 677.2059 194.3587 750.8442 268.8302 C754.1918 272.2159 755.7379 271.8663 758.8714 268.7212 C874.0569 153.0971 1040.835 -23.20973 1274.444 45.38204 C1372.754 74.24982 1441.071 137.7655 1476.073 233.4772 C1593.209 553.7985 1257.202 819.0211 969.0658 643.2015 C896.3941 598.8618 833.6334 537.6783 759.4478 462.4413 C755.4875 458.4246 753.7016 458.9935 750.0809 462.6291 C665.7981 547.2657 575.075 639.2607 463.0163 677.7693 C234.9857 756.1375 16.38269 620.8262 10.09964 373.8234 Z M152.7823 368.8899 C160.0524 515.966 273.663 584.5287 394.7125 558.4582 C499.3235 535.9266 587.0826 444.3066 661.8273 367.7939 C664.3458 365.2159 662.9337 364.1693 661.2029 362.5607 C596.2819 302.2145 532.8864 228.5083 452.9826 190.574 C298.1244 117.0592 152.263 224.8721 152.7812 368.8928 Z M1356.872 362.6739 C1352.27 220.5382 1239.66 143.0805 1109.899 173.3898 C1007.804 197.2372 920.5568 288.4225 848.0715 362.5869 C845.5572 365.1597 846.5228 366.3611 848.5835 368.2758 C939.2134 452.4949 1046.159 585.4745 1190.652 561.2363 C1286.902 545.093 1357.087 461.6104 1356.871 362.6744 Z " fill-rule="nonzero" fill="url(#gradient1)" transform="matrix(1.000671 0 0 1.000671 -10.00671 -29.74494)" /><text x="764.26" y="500.8397" font-size="80" fill="#000000" fill-opacity="1" font-family="American Typewriter" font-weight="normal" font-style="normal" transform="matrix(0.7318445 0.682456 -0.682456 0.7318445 546.0227 -490.6706)">NITE</text><text x="570.64" y="500.8397" font-size="80" fill="#000000" fill-opacity="1" font-family="American Typewriter" font-weight="normal" font-style="normal" transform="matrix(0.7198228 -0.6951244 0.6951244 0.7198228 -157.6395 555.4889)">SCR</text><text x="751.3127" y="292.9361" font-size="80" fill="#000000" fill-opacity="1" font-family="American Typewriter" font-weight="normal" font-style="normal" transform="matrix(0.7198228 -0.6951244 0.6951244 0.7198228 45.59705 642.431)">BBLE</text><text x="579.4" y="300.8397" font-size="80" fill="#000000" fill-opacity="1" font-family="American Typewriter" font-weight="normal" font-style="normal" transform="matrix(0.7198225 0.6951246 -0.6951246 0.7198225 363.704 -404.3426)">INF</text><text x="734.72" y="400.8397" font-size="80" fill="#000000" fill-opacity="1" font-family="American Typewriter" font-weight="normal" font-style="normal" transform="matrix(1.000671 0 0 1.000671 -10.00684 -29.74496)">I</text></svg>